<?xml version="1.0" encoding="utf-8" standalone="no"?>
<!DOCTYPE svg PUBLIC "-//W3C//DTD SVG 1.1//EN"
  "http://www.w3.org/Graphics/SVG/1.1/DTD/svg11.dtd">
<svg xmlns:xlink="http://www.w3.org/1999/xlink" width="493.2pt" height="597.6pt" viewBox="0 0 493.2 597.6" xmlns="http://www.w3.org/2000/svg" version="1.1">
 <metadata>
  <rdf:RDF xmlns:dc="http://purl.org/dc/elements/1.1/" xmlns:cc="http://creativecommons.org/ns#" xmlns:rdf="http://www.w3.org/1999/02/22-rdf-syntax-ns#">
   <cc:Work>
    <dc:type rdf:resource="http://purl.org/dc/dcmitype/StillImage"/>
    <dc:date>2026-10-05T15:42:22.518229</dc:date>
    <dc:format>image/svg+xml</dc:format>
    <dc:creator>
     <cc:Agent>
      <dc:title>Matplotlib v3.10.8, https://matplotlib.org/</dc:title>
     </cc:Agent>
    </dc:creator>
   </cc:Work>
  </rdf:RDF>
 </metadata>
 <defs>
  <style type="text/css">*{stroke-linejoin: round; stroke-linecap: butt}</style>
 </defs>
 <g id="figure_1">
  <g id="patch_1">
   <path d="M 0 597.6 
L 493.2 597.6 
L 493.2 0 
L 0 0 
z
" style="fill: #ffffff"/>
  </g>
  <g id="axes_1">
   <g id="patch_2">
    <path d="M 18.72 135.36 
L 474.48 135.36 
Q 478.8 135.36 478.8 131.04 
L 478.8 56.16 
Q 478.8 51.84 474.48 51.84 
L 18.72 51.84 
Q 14.4 51.84 14.4 56.16 
L 14.4 131.04 
Q 14.4 135.36 18.72 135.36 
z
" clip-path="url(#p56ded4cdf3)" style="fill: #ecf1f7; stroke: #565c65; stroke-width: 0.9; stroke-linejoin: miter"/>
   </g>
   <g id="patch_3">
    <path d="M 126.72 151.760391 
Q 126.72 156.95969 126.72 160.929151 
" clip-path="url(#p56ded4cdf3)" style="fill: none; stroke: #1a4480; stroke-width: 1.1; stroke-linecap: round"/>
    <path d="M 128.52 157.329151 
L 126.72 160.929151 
L 124.92 157.329151 
z
" clip-path="url(#p56ded4cdf3)" style="fill: #1a4480; stroke: #1a4480; stroke-width: 1.1; stroke-linecap: round"/>
   </g>
   <g id="patch_4">
    <path d="M 366.48 151.760391 
Q 366.48 156.95969 366.48 160.929151 
" clip-path="url(#p56ded4cdf3)" style="fill: none; stroke: #1a4480; stroke-width: 1.1; stroke-linecap: round"/>
    <path d="M 368.28 157.329151 
L 366.48 160.929151 
L 364.68 157.329151 
z
" clip-path="url(#p56ded4cdf3)" style="fill: #1a4480; stroke: #1a4480; stroke-width: 1.1; stroke-linecap: round"/>
   </g>
   <g id="patch_5">
    <path d="M 18.72 299.52 
L 234.72 299.52 
Q 239.04 299.52 239.04 295.2 
L 239.04 168.48 
Q 239.04 164.16 234.72 164.16 
L 18.72 164.16 
Q 14.4 164.16 14.4 168.48 
L 14.4 295.2 
Q 14.4 299.52 18.72 299.52 
z
" clip-path="url(#p56ded4cdf3)" style="fill: #f0f0ec; stroke: #565c65; stroke-width: 0.9; stroke-linejoin: miter"/>
   </g>
   <g id="patch_6">
    <path d="M 258.48 299.52 
L 474.48 299.52 
Q 478.8 299.52 478.8 295.2 
L 478.8 168.48 
Q 478.8 164.16 474.48 164.16 
L 258.48 164.16 
Q 254.16 164.16 254.16 168.48 
L 254.16 295.2 
Q 254.16 299.52 258.48 299.52 
z
" clip-path="url(#p56ded4cdf3)" style="fill: #f5f0e6; stroke: #565c65; stroke-width: 0.9; stroke-linejoin: miter"/>
   </g>
   <g id="patch_7">
    <path d="M 366.48 301.517051 
Q 366.48 307.077324 366.48 311.407759 
" clip-path="url(#p56ded4cdf3)" style="fill: none; stroke: #1a4480; stroke-width: 1.1; stroke-linecap: round"/>
    <path d="M 368.28 307.807759 
L 366.48 311.407759 
L 364.68 307.807759 
z
" clip-path="url(#p56ded4cdf3)" style="fill: #1a4480; stroke: #1a4480; stroke-width: 1.1; stroke-linecap: round"/>
   </g>
   <g id="patch_8">
    <path d="M 258.48 432.72 
L 474.48 432.72 
Q 478.8 432.72 478.8 428.4 
L 478.8 318.96 
Q 478.8 314.64 474.48 314.64 
L 258.48 314.64 
Q 254.16 314.64 254.16 318.96 
L 254.16 428.4 
Q 254.16 432.72 258.48 432.72 
z
" clip-path="url(#p56ded4cdf3)" style="fill: #f5f0e6; stroke: #565c65; stroke-width: 0.9; stroke-linejoin: miter"/>
   </g>
   <g id="patch_9">
    <path d="M 366.48 434.719687 
Q 366.48 438.478073 366.48 441.00662 
" clip-path="url(#p56ded4cdf3)" style="fill: none; stroke: #1a4480; stroke-width: 1.1; stroke-linecap: round"/>
    <path d="M 368.28 437.40662 
L 366.48 441.00662 
L 364.68 437.40662 
z
" clip-path="url(#p56ded4cdf3)" style="fill: #1a4480; stroke: #1a4480; stroke-width: 1.1; stroke-linecap: round"/>
   </g>
   <g id="patch_10">
    <path d="M 258.48 536.4 
L 474.48 536.4 
Q 478.8 536.4 478.8 532.08 
L 478.8 448.56 
Q 478.8 444.24 474.48 444.24 
L 258.48 444.24 
Q 254.16 444.24 254.16 448.56 
L 254.16 532.08 
Q 254.16 536.4 258.48 536.4 
z
" clip-path="url(#p56ded4cdf3)" style="fill: #ecf1f7; stroke: #565c65; stroke-width: 0.9; stroke-linejoin: miter"/>
   </g>
   <g id="patch_11">
    <path d="M 126.72 301.523906 
Q 126.72 308.160578 126.72 313.567413 
" clip-path="url(#p56ded4cdf3)" style="fill: none; stroke: #1a4480; stroke-width: 1.1; stroke-linecap: round"/>
    <path d="M 128.52 309.967413 
L 126.72 313.567413 
L 124.92 309.967413 
z
" clip-path="url(#p56ded4cdf3)" style="fill: #1a4480; stroke: #1a4480; stroke-width: 1.1; stroke-linecap: round"/>
   </g>
   <g id="patch_12">
    <path d="M 18.72 447.84 
L 234.72 447.84 
Q 239.04 447.84 239.04 443.52 
L 239.04 321.12 
Q 239.04 316.8 234.72 316.8 
L 18.72 316.8 
Q 14.4 316.8 14.4 321.12 
L 14.4 443.52 
Q 14.4 447.84 18.72 447.84 
z
" clip-path="url(#p56ded4cdf3)" style="fill: #f0f0ec; stroke: #565c65; stroke-width: 0.9; stroke-linejoin: miter"/>
   </g>
   <g id="patch_13">
    <path d="M 244.239609 381.6 
Q 242.638851 381.6 242.267929 381.6 
" clip-path="url(#p56ded4cdf3)" style="fill: none; stroke: #1a4480; stroke-width: 1.1; stroke-linecap: round"/>
    <path d="M 245.867929 383.4 
L 242.267929 381.6 
L 245.867929 379.8 
z
" clip-path="url(#p56ded4cdf3)" style="fill: #1a4480; stroke: #1a4480; stroke-width: 1.1; stroke-linecap: round"/>
   </g>
   <g id="patch_14">
    <path d="M 126.72 449.839336 
Q 126.72 455.761153 126.72 460.453133 
" clip-path="url(#p56ded4cdf3)" style="fill: none; stroke: #1a4480; stroke-width: 1.1; stroke-linecap: round"/>
    <path d="M 128.52 456.853133 
L 126.72 460.453133 
L 124.92 456.853133 
z
" clip-path="url(#p56ded4cdf3)" style="fill: #1a4480; stroke: #1a4480; stroke-width: 1.1; stroke-linecap: round"/>
   </g>
   <g id="patch_15">
    <path d="M 18.72 565.2 
L 234.72 565.2 
Q 239.04 565.2 239.04 560.88 
L 239.04 468 
Q 239.04 463.68 234.72 463.68 
L 18.72 463.68 
Q 14.4 463.68 14.4 468 
L 14.4 560.88 
Q 14.4 565.2 18.72 565.2 
z
" clip-path="url(#p56ded4cdf3)" style="fill: #ecf1f7; stroke: #565c65; stroke-width: 0.9; stroke-linejoin: miter"/>
   </g>
   <g id="line2d_1">
    <path d="M 246.24 135.36 
L 246.24 149.76 
" clip-path="url(#p56ded4cdf3)" style="fill: none; stroke: #1a4480; stroke-width: 1.1; stroke-linecap: square"/>
   </g>
   <g id="line2d_2">
    <path d="M 246.24 149.76 
L 126.72 149.76 
" clip-path="url(#p56ded4cdf3)" style="fill: none; stroke: #1a4480; stroke-width: 1.1; stroke-linecap: square"/>
   </g>
   <g id="line2d_3">
    <path d="M 246.24 149.76 
L 366.48 149.76 
" clip-path="url(#p56ded4cdf3)" style="fill: none; stroke: #1a4480; stroke-width: 1.1; stroke-linecap: square"/>
   </g>
   <g id="line2d_4">
    <path d="M 254.16 491.76 
L 246.24 491.76 
" clip-path="url(#p56ded4cdf3)" style="fill: none; stroke: #1a4480; stroke-width: 1.1; stroke-linecap: square"/>
   </g>
   <g id="line2d_5">
    <path d="M 246.24 491.76 
L 246.24 381.6 
" clip-path="url(#p56ded4cdf3)" style="fill: none; stroke: #1a4480; stroke-width: 1.1; stroke-linecap: square"/>
   </g>
   <g id="text_1">
    <text style="font-weight: 700; font-size: 15px; font-family: 'DejaVu Sans'; text-anchor: start; fill: #162e51" x="14.4" y="23.04" transform="rotate(-0 14.4 23.04)">Outcome recording and evidence reassessment</text>
   </g>
   <g id="text_2">
    <text style="font-size: 9.4px; font-family: 'DejaVu Sans'; text-anchor: start; fill: #1b1b1b" x="14.4" y="41.04" transform="rotate(-0 14.4 41.04)">Figure 3. Notes document a decision; a compatible CSV starts a separate evidence version</text>
   </g>
   <g id="text_3">
    <text style="font-weight: 700; font-size: 10.4px; font-family: 'DejaVu Sans'; text-anchor: start; fill: #162e51" x="23.04" y="69.12" transform="rotate(-0 23.04 69.12)">Preserved action snapshot P0</text>
   </g>
   <g id="text_4">
    <text style="font-size: 9.4px; font-family: 'DejaVu Sans'; text-anchor: start; fill: #1b1b1b" x="23.04" y="86.4" transform="rotate(-0 23.04 86.4)">R0 records + audit A0 + request/resources + raw/delivered action + inference</text>
   </g>
   <g id="text_5">
    <text style="font-size: 9.4px; font-family: 'DejaVu Sans'; text-anchor: start; fill: #1b1b1b" x="23.04" y="99.36" transform="rotate(-0 23.04 99.36)">Match the evidence version using sorted record contents; workflow ID is not a chip ID</text>
   </g>
   <g id="text_6">
    <text style="font-size: 9.4px; font-family: 'DejaVu Sans'; text-anchor: start; fill: #1b1b1b" x="23.04" y="112.32" transform="rotate(-0 23.04 112.32)">Save the draft before leaving to inspect workbook-linked measurements</text>
   </g>
   <g id="text_7">
    <text style="font-size: 9.4px; font-family: 'DejaVu Sans'; text-anchor: start; fill: #1b1b1b" x="23.04" y="125.28" transform="rotate(-0 23.04 125.28)">Original records and earlier plans remain available in exported history</text>
   </g>
   <g id="text_8">
    <text style="font-weight: 700; font-size: 10.4px; font-family: 'DejaVu Sans'; text-anchor: start; fill: #162e51" x="23.04" y="181.44" transform="rotate(-0 23.04 181.44)">Notes-only outcome</text>
   </g>
   <g id="text_9">
    <text style="font-size: 9.4px; font-family: 'DejaVu Sans'; text-anchor: start; fill: #1b1b1b" x="23.04" y="198.72" transform="rotate(-0 23.04 198.72)">Record findings and source reference</text>
   </g>
   <g id="text_10">
    <text style="font-size: 9.4px; font-family: 'DejaVu Sans'; text-anchor: start; fill: #1b1b1b" x="23.04" y="211.68" transform="rotate(-0 23.04 211.68)">Pending / inspected / unresolved / reported</text>
   </g>
   <g id="text_11">
    <text style="font-size: 9.4px; font-family: 'DejaVu Sans'; text-anchor: start; fill: #1b1b1b" x="23.04" y="224.64" transform="rotate(-0 23.04 224.64)">Append outcome to P0</text>
   </g>
   <g id="text_12">
    <text style="font-size: 9.4px; font-family: 'DejaVu Sans'; text-anchor: start; fill: #1b1b1b" x="23.04" y="237.6" transform="rotate(-0 23.04 237.6)">Measurements and A0 stay unchanged</text>
   </g>
   <g id="text_13">
    <text style="font-size: 9.4px; font-family: 'DejaVu Sans'; text-anchor: start; fill: #1b1b1b" x="23.04" y="250.56" transform="rotate(-0 23.04 250.56)">Computed warnings stay unchanged</text>
   </g>
   <g id="text_14">
    <text style="font-size: 9.4px; font-family: 'DejaVu Sans'; text-anchor: start; fill: #1b1b1b" x="23.04" y="263.52" transform="rotate(-0 23.04 263.52)">No laboratory validity is inferred</text>
   </g>
   <g id="text_15">
    <text style="font-weight: 700; font-size: 10.4px; font-family: 'DejaVu Sans'; text-anchor: start; fill: #162e51" x="262.8" y="181.44" transform="rotate(-0 262.8 181.44)">Updated CSV R1 + documentation</text>
   </g>
   <g id="text_16">
    <text style="font-size: 9.4px; font-family: 'DejaVu Sans'; text-anchor: start; fill: #1b1b1b" x="262.8" y="198.72" transform="rotate(-0 262.8 198.72)">Complete case + reference + compatibility</text>
   </g>
   <g id="text_17">
    <text style="font-size: 9.4px; font-family: 'DejaVu Sans'; text-anchor: start; fill: #1b1b1b" x="262.8" y="211.68" transform="rotate(-0 262.8 211.68)">Same compound, day 3 and normalised</text>
   </g>
   <g id="text_18">
    <text style="font-size: 9.4px; font-family: 'DejaVu Sans'; text-anchor: start; fill: #1b1b1b" x="262.8" y="224.64" transform="rotate(-0 262.8 224.64)">units</text>
   </g>
   <g id="text_19">
    <text style="font-size: 9.4px; font-family: 'DejaVu Sans'; text-anchor: start; fill: #1b1b1b" x="262.8" y="237.6" transform="rotate(-0 262.8 237.6)">Keep every baseline source-record ID</text>
   </g>
   <g id="text_20">
    <text style="font-size: 9.4px; font-family: 'DejaVu Sans'; text-anchor: start; fill: #1b1b1b" x="262.8" y="250.56" transform="rotate(-0 262.8 250.56)">Observed originals cannot become missing</text>
   </g>
   <g id="text_21">
    <text style="font-size: 9.4px; font-family: 'DejaVu Sans'; text-anchor: start; fill: #1b1b1b" x="262.8" y="263.52" transform="rotate(-0 262.8 263.52)">Reject duplicates or derived observations</text>
   </g>
   <g id="text_22">
    <text style="font-size: 9.4px; font-family: 'DejaVu Sans'; text-anchor: start; fill: #1b1b1b" x="262.8" y="276.48" transform="rotate(-0 262.8 276.48)">Unknown chip/run/donor IDs remain</text>
   </g>
   <g id="text_23">
    <text style="font-size: 9.4px; font-family: 'DejaVu Sans'; text-anchor: start; fill: #1b1b1b" x="262.8" y="289.44" transform="rotate(-0 262.8 289.44)">unknown</text>
   </g>
   <g id="text_24">
    <text style="font-weight: 700; font-size: 10.4px; font-family: 'DejaVu Sans'; text-anchor: start; fill: #162e51" x="262.8" y="331.92" transform="rotate(-0 262.8 331.92)">Action-specific update gate</text>
   </g>
   <g id="text_25">
    <text style="font-size: 9.4px; font-family: 'DejaVu Sans'; text-anchor: start; fill: #1b1b1b" x="262.8" y="349.2" transform="rotate(-0 262.8 349.2)">RECOVER: missing baseline ID → observed</text>
   </g>
   <g id="text_26">
    <text style="font-size: 9.4px; font-family: 'DejaVu Sans'; text-anchor: start; fill: #1b1b1b" x="262.8" y="362.16" transform="rotate(-0 262.8 362.16)">REPEAT: new ID at the named existing dose</text>
   </g>
   <g id="text_27">
    <text style="font-size: 9.4px; font-family: 'DejaVu Sans'; text-anchor: start; fill: #1b1b1b" x="262.8" y="375.12" transform="rotate(-0 262.8 375.12)">EXTEND: new ID at a new observed dose</text>
   </g>
   <g id="text_28">
    <text style="font-size: 9.4px; font-family: 'DejaVu Sans'; text-anchor: start; fill: #1b1b1b" x="262.8" y="388.08" transform="rotate(-0 262.8 388.08)">FIX: blocked baseline → usable revised</text>
   </g>
   <g id="text_29">
    <text style="font-size: 9.4px; font-family: 'DejaVu Sans'; text-anchor: start; fill: #1b1b1b" x="262.8" y="401.04" transform="rotate(-0 262.8 401.04)">input</text>
   </g>
   <g id="text_30">
    <text style="font-size: 9.4px; font-family: 'DejaVu Sans'; text-anchor: start; fill: #1b1b1b" x="262.8" y="414" transform="rotate(-0 262.8 414)">INSPECT: documented evidence revision</text>
   </g>
   <g id="text_31">
    <text style="font-size: 9.4px; font-family: 'DejaVu Sans'; text-anchor: start; fill: #1b1b1b" x="262.8" y="426.96" transform="rotate(-0 262.8 426.96)">Metadata alone is not a new measurement</text>
   </g>
   <g id="text_32">
    <text style="font-weight: 700; font-size: 10.4px; font-family: 'DejaVu Sans'; text-anchor: start; fill: #162e51" x="262.8" y="461.52" transform="rotate(-0 262.8 461.52)">Re-audit with unchanged F</text>
   </g>
   <g id="text_33">
    <text style="font-size: 9.4px; font-family: 'DejaVu Sans'; text-anchor: start; fill: #1b1b1b" x="262.8" y="478.8" transform="rotate(-0 262.8 478.8)">Recompute A0 = F(R0), A1 = F(R1)</text>
   </g>
   <g id="text_34">
    <text style="font-size: 9.4px; font-family: 'DejaVu Sans'; text-anchor: start; fill: #1b1b1b" x="262.8" y="491.76" transform="rotate(-0 262.8 491.76)">Record changes and check changes</text>
   </g>
   <g id="text_35">
    <text style="font-size: 9.4px; font-family: 'DejaVu Sans'; text-anchor: start; fill: #1b1b1b" x="262.8" y="504.72" transform="rotate(-0 262.8 504.72)">Crossing state, location and range</text>
   </g>
   <g id="text_36">
    <text style="font-size: 9.4px; font-family: 'DejaVu Sans'; text-anchor: start; fill: #1b1b1b" x="262.8" y="517.68" transform="rotate(-0 262.8 517.68)">Compatibility: researcher report</text>
   </g>
   <g id="text_37">
    <text style="font-size: 9.4px; font-family: 'DejaVu Sans'; text-anchor: start; fill: #1b1b1b" x="262.8" y="530.64" transform="rotate(-0 262.8 530.64)">Authenticity is not verified</text>
   </g>
   <g id="text_38">
    <text style="font-weight: 700; font-size: 10.4px; font-family: 'DejaVu Sans'; text-anchor: start; fill: #162e51" x="23.04" y="334.08" transform="rotate(-0 23.04 334.08)">Action and outcome history</text>
   </g>
   <g id="text_39">
    <text style="font-size: 9.4px; font-family: 'DejaVu Sans'; text-anchor: start; fill: #1b1b1b" x="23.04" y="351.36" transform="rotate(-0 23.04 351.36)">P0 + recorded outcomes + A1 if supplied</text>
   </g>
   <g id="text_40">
    <text style="font-size: 9.4px; font-family: 'DejaVu Sans'; text-anchor: start; fill: #1b1b1b" x="23.04" y="364.32" transform="rotate(-0 23.04 364.32)">R0 is retained beside R1</text>
   </g>
   <g id="text_41">
    <text style="font-size: 9.4px; font-family: 'DejaVu Sans'; text-anchor: start; fill: #1b1b1b" x="23.04" y="377.28" transform="rotate(-0 23.04 377.28)">One reassessment per action</text>
   </g>
   <g id="text_42">
    <text style="font-size: 9.4px; font-family: 'DejaVu Sans'; text-anchor: start; fill: #1b1b1b" x="23.04" y="390.24" transform="rotate(-0 23.04 390.24)">Rejected CSV preserves the prior record</text>
   </g>
   <g id="text_43">
    <text style="font-size: 9.4px; font-family: 'DejaVu Sans'; text-anchor: start; fill: #1b1b1b" x="23.04" y="403.2" transform="rotate(-0 23.04 403.2)">Store only in this browser tab's session</text>
   </g>
   <g id="text_44">
    <text style="font-size: 9.4px; font-family: 'DejaVu Sans'; text-anchor: start; fill: #1b1b1b" x="23.04" y="416.16" transform="rotate(-0 23.04 416.16)">Export JSON before closing the tab</text>
   </g>
   <g id="text_45">
    <text style="font-weight: 700; font-size: 10.4px; font-family: 'DejaVu Sans'; text-anchor: start; fill: #162e51" x="23.04" y="480.96" transform="rotate(-0 23.04 480.96)">Compare and continue</text>
   </g>
   <g id="text_46">
    <text style="font-size: 9.4px; font-family: 'DejaVu Sans'; text-anchor: start; fill: #1b1b1b" x="23.04" y="498.24" transform="rotate(-0 23.04 498.24)">Compare conclusions and record changes</text>
   </g>
   <g id="text_47">
    <text style="font-size: 9.4px; font-family: 'DejaVu Sans'; text-anchor: start; fill: #1b1b1b" x="23.04" y="511.2" transform="rotate(-0 23.04 511.2)">List remaining failed/unassessed checks</text>
   </g>
   <g id="text_48">
    <text style="font-size: 9.4px; font-family: 'DejaVu Sans'; text-anchor: start; fill: #1b1b1b" x="23.04" y="524.16" transform="rotate(-0 23.04 524.16)">Accepted R1 → updated Review</text>
   </g>
   <g id="text_49">
    <text style="font-size: 9.4px; font-family: 'DejaVu Sans'; text-anchor: start; fill: #1b1b1b" x="23.04" y="537.12" transform="rotate(-0 23.04 537.12)">New action from A1; preserve P0</text>
   </g>
   <g id="text_50">
    <text style="font-size: 9.4px; font-family: 'DejaVu Sans'; text-anchor: start; fill: #1b1b1b" x="23.04" y="550.08" transform="rotate(-0 23.04 550.08)">Notes never clear computed warnings</text>
   </g>
   <g id="text_51">
    <text style="font-size: 9.4px; font-family: 'DejaVu Sans'; text-anchor: start; fill: #1b1b1b" x="254.16" y="558.72" transform="rotate(-0 254.16 558.72)">CSV checks do not prove independent chips,</text>
   </g>
   <g id="text_52">
    <text style="font-size: 9.4px; font-family: 'DejaVu Sans'; text-anchor: start; fill: #1b1b1b" x="254.16" y="573.12" transform="rotate(-0 254.16 573.12)">assay validity or clinical drug safety.</text>
   </g>
  </g>
 </g>
 <defs>
  <clipPath id="p56ded4cdf3">
   <rect x="0" y="0" width="493.2" height="597.6"/>
  </clipPath>
 </defs>
</svg>
